{
  "accessors": [
    {
      "bufferView": 2,
      "componentType": 5126,
      "count": 30420,
      "max": [
        2.4334080219268799,
        2.4912059307098389,
        5.4573249816894531
      ],
      "min": [
        -2.4334080219268799,
        -1.8503580093383789,
        1.1158579587936401
      ],
      "type": "VEC3"
    },
    {
      "bufferView": 2,
      "byteOffset": 365040,
      "componentType": 5126,
      "count": 30420,
      "max": [
        0.99999630451202393,
        0.99997270107269287,
        0.99997341632843018
      ],
      "min": [
        -0.99999630451202393,
        -1,
        -0.9999997615814209
      ],
      "type": "VEC3"
    },
    {
      "bufferView": 3,
      "componentType": 5126,
      "count": 30420,
      "max": [
        1,
        1,
        0.85290056467056274,
        1
      ],
      "min": [
        -1,
        -0.9999997615814209,
        -0.85289984941482544,
        -1
      ],
      "type": "VEC4"
    },
    {
      "bufferView": 1,
      "componentType": 5126,
      "count": 30420,
      "max": [
        1.8423160314559937,
        1.469169020652771
      ],
      "min": [
        -1.9564269781112671,
        -0.62925398349761963
      ],
      "type": "VEC2"
    },
    {
      "bufferView": 0,
      "componentType": 5125,
      "count": 175824,
      "max": [
        30419
      ],
      "min": [
        0
      ],
      "type": "SCALAR"
    },
    {
      "bufferView": 2,
      "byteOffset": 730080,
      "componentType": 5126,
      "count": 4041,
      "max": [
        2.1583399772644043,
        2.510828971862793,
        5.3046388626098633
      ],
      "min": [
        -2.1583399772644043,
        -1.8342490196228027,
        1.1402449607849121
      ],
      "type": "VEC3"
    },
    {
      "bufferView": 2,
      "byteOffset": 778572,
      "componentType": 5126,
      "count": 4041,
      "max": [
        0.99978965520858765,
        0.99485379457473755,
        0.99921560287475586
      ],
      "min": [
        -0.99978965520858765,
        -0.99444150924682617,
        -0.9992411732673645
      ],
      "type": "VEC3"
    },
    {
      "bufferView": 3,
      "byteOffset": 486720,
      "componentType": 5126,
      "count": 4041,
      "max": [
        0.99981606006622314,
        0.99329584836959839,
        0.99929434061050415,
        1
      ],
      "min": [
        -0.99981606006622314,
        -0.99372595548629761,
        -0.99950844049453735,
        -1
      ],
      "type": "VEC4"
    },
    {
      "bufferView": 1,
      "byteOffset": 243360,
      "componentType": 5126,
      "count": 4041,
      "max": [
        0.040874000638723373,
        2.0221719741821289
      ],
      "min": [
        -0.020640000700950623,
        -1.0221749544143677
      ],
      "type": "VEC2"
    },
    {
      "bufferView": 0,
      "byteOffset": 703296,
      "componentType": 5125,
      "count": 21504,
      "max": [
        4040
      ],
      "min": [
        0
      ],
      "type": "SCALAR"
    },
    {
      "bufferView": 2,
      "byteOffset": 827064,
      "componentType": 5126,
      "count": 37324,
      "max": [
        2.1279408931732178,
        1.6528149843215942,
        1.3462040424346924
      ],
      "min": [
        -2.1279408931732178,
        -1.8705129623413086,
        1.2734489440917969
      ],
      "type": "VEC3"
    },
    {
      "bufferView": 2,
      "byteOffset": 1274952,
      "componentType": 5126,
      "count": 37324,
      "max": [
        0.99970227479934692,
        0.99996447563171387,
        0.96863001585006714
      ],
      "min": [
        -0.99970227479934692,
        -1,
        -0.96861255168914795
      ],
      "type": "VEC3"
    },
    {
      "bufferView": 0,
      "byteOffset": 789312,
      "componentType": 5125,
      "count": 217560,
      "max": [
        37323
      ],
      "min": [
        0
      ],
      "type": "SCALAR"
    },
    {
      "bufferView": 2,
      "byteOffset": 1722840,
      "componentType": 5126,
      "count": 3876,
      "max": [
        2.0397820472717285,
        1.7386829853057861,
        1.1540080308914185
      ],
      "min": [
        -2.0397820472717285,
        -1.7230210304260254,
        0.00013299999409355223
      ],
      "type": "VEC3"
    },
    {
      "bufferView": 2,
      "byteOffset": 1769352,
      "componentType": 5126,
      "count": 3876,
      "max": [
        0.99936938285827637,
        0.99651211500167847,
        0.68648159503936768
      ],
      "min": [
        -0.99936938285827637,
        -0.999916672706604,
        -0.96101111173629761
      ],
      "type": "VEC3"
    },
    {
      "bufferView": 3,
      "byteOffset": 551376,
      "componentType": 5126,
      "count": 3876,
      "max": [
        0.99994522333145142,
        0.99954712390899658,
        0.98954558372497559,
        1
      ],
      "min": [
        -0.99994522333145142,
        -0.9996640682220459,
        -0.80579847097396851,
        -1
      ],
      "type": "VEC4"
    },
    {
      "bufferView": 1,
      "byteOffset": 275688,
      "componentType": 5126,
      "count": 3876,
      "max": [
        1.0306830406188965,
        1.1155109405517578
      ],
      "min": [
        0.0001140000022132881,
        -0.015072000212967396
      ],
      "type": "VEC2"
    },
    {
      "bufferView": 0,
      "byteOffset": 1659552,
      "componentType": 5125,
      "count": 21024,
      "max": [
        3875
      ],
      "min": [
        0
      ],
      "type": "SCALAR"
    }
  ],
  "asset": {
    "extras": {
      "author": "Interiors3D (https://sketchfab.com/Interiors3D)",
      "license": "CC-BY-4.0 (http://creativecommons.org/licenses/by/4.0/)",
      "source": "https://sketchfab.com/3d-models/a51900-c85a15b62ee14a4ba43c019c7f613f88",
      "title": "A51900"
    },
    "generator": "Sketchfab-7.27.0",
    "version": "2.0"
  },
  "bufferViews": [
    {
      "buffer": 0,
      "byteLength": 1743648,
      "byteOffset": 0,
      "name": "floatBufferViews",
      "target": 34963
    },
    {
      "buffer": 0,
      "byteLength": 306696,
      "byteOffset": 1743648,
      "byteStride": 8,
      "name": "floatBufferViews",
      "target": 34962
    },
    {
      "buffer": 0,
      "byteLength": 1815864,
      "byteOffset": 2050344,
      "byteStride": 12,
      "name": "floatBufferViews",
      "target": 34962
    },
    {
      "buffer": 0,
      "byteLength": 613392,
      "byteOffset": 3866208,
      "byteStride": 16,
      "name": "floatBufferViews",
      "target": 34962
    }
  ],
  "buffers": [
    {
      "byteLength": 4479600,
      "uri": "scene.bin"
    }
  ],
  "images": [
    {
      "uri": "textures/Fabric_baseColor.jpeg"
    },
    {
      "uri": "textures/Fabric_metallicRoughness.png"
    },
    {
      "uri": "textures/Fabric_normal.png"
    },
    {
      "uri": "textures/wood_baseColor.jpeg"
    },
    {
      "uri": "textures/wood_metallicRoughness.png"
    },
    {
      "uri": "textures/wood_normal.png"
    }
  ],
  "materials": [
    {
      "doubleSided": true,
      "emissiveFactor": [
        0,
        0,
        0
      ],
      "name": "Fabric",
      "normalTexture": {
        "index": 2,
        "scale": 1,
        "texCoord": 0
      },
      "pbrMetallicRoughness": {
        "baseColorFactor": [
          1,
          1,
          1,
          1
        ],
        "baseColorTexture": {
          "index": 0,
          "texCoord": 0
        },
        "metallicFactor": 0,
        "metallicRoughnessTexture": {
          "index": 1,
          "texCoord": 0
        },
        "roughnessFactor": 1
      }
    },
    {
      "doubleSided": true,
      "emissiveFactor": [
        0,
        0,
        0
      ],
      "name": "Metal",
      "pbrMetallicRoughness": {
        "baseColorFactor": [
          0.10151400000000002,
          0.057439999999999991,
          0.013108000000000002,
          1
        ],
        "metallicFactor": 1,
        "roughnessFactor": 0.79620324017641897
      }
    },
    {
      "doubleSided": true,
      "emissiveFactor": [
        0,
        0,
        0
      ],
      "name": "wood",
      "normalTexture": {
        "index": 5,
        "scale": 1,
        "texCoord": 0
      },
      "pbrMetallicRoughness": {
        "baseColorFactor": [
          1,
          1,
          1,
          1
        ],
        "baseColorTexture": {
          "index": 3,
          "texCoord": 0
        },
        "metallicFactor": 0,
        "metallicRoughnessTexture": {
          "index": 4,
          "texCoord": 0
        },
        "roughnessFactor": 1
      }
    }
  ],
  "meshes": [
    {
      "primitives": [
        {
          "attributes": {
            "NORMAL": 1,
            "POSITION": 0,
            "TANGENT": 2,
            "TEXCOORD_0": 3
          },
          "indices": 4,
          "material": 0,
          "mode": 4
        }
      ]
    },
    {
      "primitives": [
        {
          "attributes": {
            "NORMAL": 6,
            "POSITION": 5,
            "TANGENT": 7,
            "TEXCOORD_0": 8
          },
          "indices": 9,
          "material": 0,
          "mode": 4
        }
      ]
    },
    {
      "primitives": [
        {
          "attributes": {
            "NORMAL": 11,
            "POSITION": 10
          },
          "indices": 12,
          "material": 1,
          "mode": 4
        }
      ]
    },
    {
      "primitives": [
        {
          "attributes": {
            "NORMAL": 14,
            "POSITION": 13,
            "TANGENT": 15,
            "TEXCOORD_0": 16
          },
          "indices": 17,
          "material": 2,
          "mode": 4
        }
      ]
    }
  ],
  "nodes": [
    {
      "children": [
        1
      ],
      "name": "RootNode (gltf orientation matrix)",
      "rotation": [
        -0.70710678118654746,
        -0,
        -0,
        0.70710678118654757
      ]
    },
    {
      "children": [
        2
      ],
      "name": "RootNode (model correction matrix)"
    },
    {
      "children": [
        3,
        4,
        5,
        6
      ],
      "name": "SOFA RETOPOLOGY OK.obj.cleaner.materialmerger.gles"
    },
    {
      "mesh": 0,
      "name": ""
    },
    {
      "mesh": 1,
      "name": ""
    },
    {
      "mesh": 2,
      "name": ""
    },
    {
      "mesh": 3,
      "name": ""
    }
  ],
  "samplers": [
    {
      "magFilter": 9729,
      "minFilter": 9987,
      "wrapS": 10497,
      "wrapT": 10497
    }
  ],
  "scene": 0,
  "scenes": [
    {
      "name": "OSG_Scene",
      "nodes": [
        0
      ]
    }
  ],
  "textures": [
    {
      "sampler": 0,
      "source": 0
    },
    {
      "sampler": 0,
      "source": 1
    },
    {
      "sampler": 0,
      "source": 2
    },
    {
      "sampler": 0,
      "source": 3
    },
    {
      "sampler": 0,
      "source": 4
    },
    {
      "sampler": 0,
      "source": 5
    }
  ]
}

